<?xml version="1.0" encoding="UTF-8" standalone="no"?>
<!-- Created with Inkscape (http://www.inkscape.org/) -->

<svg
   xmlns:dc="http://purl.org/dc/elements/1.1/"
   xmlns:cc="http://creativecommons.org/ns#"
   xmlns:rdf="http://www.w3.org/1999/02/22-rdf-syntax-ns#"
   xmlns:svg="http://www.w3.org/2000/svg"
   xmlns="http://www.w3.org/2000/svg"
   xmlns:xlink="http://www.w3.org/1999/xlink"
   xmlns:sodipodi="http://sodipodi.sourceforge.net/DTD/sodipodi-0.dtd"
   xmlns:inkscape="http://www.inkscape.org/namespaces/inkscape"
   width="210mm"
   height="297mm"
   id="svg3313"
   version="1.1"
   inkscape:version="0.48.4 r9939"
   sodipodi:docname="Nuevo documento 8">
  <defs
     id="defs3315">
    <linearGradient
       inkscape:collect="always"
       id="linearGradient4130">
      <stop
         style="stop-color:#ffccaa;stop-opacity:1;"
         offset="0"
         id="stop4132" />
      <stop
         style="stop-color:#ffffff;stop-opacity:1"
         offset="1"
         id="stop4134" />
    </linearGradient>
    <linearGradient
       inkscape:collect="always"
       xlink:href="#linearGradient4130"
       id="linearGradient4136"
       x1="313.24832"
       y1="390.51022"
       x2="181.72644"
       y2="335.3559"
       gradientUnits="userSpaceOnUse" />
    <linearGradient
       gradientTransform="matrix(0.40905941,0,0,0.35777882,107.11879,216.44026)"
       inkscape:collect="always"
       xlink:href="#linearGradient4130-1"
       id="linearGradient4136-4"
       x1="140.27599"
       y1="367.32727"
       x2="283.28699"
       y2="427.42029"
       gradientUnits="userSpaceOnUse" />
    <linearGradient
       inkscape:collect="always"
       id="linearGradient4130-1">
      <stop
         style="stop-color:#ffffff;stop-opacity:1"
         offset="0"
         id="stop4132-2" />
      <stop
         style="stop-color:#ffffff;stop-opacity:0"
         offset="1"
         id="stop4134-8" />
    </linearGradient>
  </defs>
  <sodipodi:namedview
     id="base"
     pagecolor="#ffffff"
     bordercolor="#666666"
     borderopacity="1.0"
     inkscape:pageopacity="0.0"
     inkscape:pageshadow="2"
     inkscape:zoom="2"
     inkscape:cx="234.18575"
     inkscape:cy="579.50939"
     inkscape:document-units="px"
     inkscape:current-layer="layer1"
     showgrid="false"
     inkscape:window-width="1855"
     inkscape:window-height="1056"
     inkscape:window-x="65"
     inkscape:window-y="24"
     inkscape:window-maximized="1" />
  <metadata
     id="metadata3318">
    <rdf:RDF>
      <cc:Work
         rdf:about="">
        <dc:format>image/svg+xml</dc:format>
        <dc:type
           rdf:resource="http://purl.org/dc/dcmitype/StillImage" />
        <dc:title></dc:title>
      </cc:Work>
    </rdf:RDF>
  </metadata>
  <g
     inkscape:label="Capa 1"
     inkscape:groupmode="layer"
     id="layer1">
    <path
       style="fill:#ffd5b8;fill-opacity:1;fill-rule:nonzero;stroke:none"
       d="m 229.385,335.3153 c -15.1404,0 -29.953,28.05869 -28.1101,48.45667 1.8665,20.65943 12.9697,25.63709 28.1101,25.63709 0.04,0 0.076,0 0.115,0 0.039,0 0.075,0 0.115,0 15.1404,0 26.2436,-4.97766 28.1101,-25.63709 1.8429,-20.39798 -12.9697,-48.45667 -28.1101,-48.45667 -0.039,0 -0.076,0.009 -0.115,0.0113 -0.037,-8.9e-4 -0.078,-0.0113 -0.115,-0.0113 z"
       id="path3338-3"
       inkscape:connector-curvature="0" />
    <path
       style="fill:url(#linearGradient4136-4);fill-opacity:1;fill-rule:nonzero;stroke:none"
       d="m 222.6246,350.68131 c -24.3975,27.63505 -1.8351,53.93052 -7.9822,50.03951 -5.8986,-3.73365 -19.0981,-23.64676 1.1383,-52.49737 10.7307,-13.18161 16.5594,-11.6075 6.8439,2.45786 z"
       id="path4127-9"
       inkscape:connector-curvature="0"
       sodipodi:nodetypes="cscc" />
    <path
       sodipodi:type="arc"
       style="opacity:0.49236678;fill:#000000;fill-opacity:1;fill-rule:nonzero;stroke:none"
       id="path3333-5"
       sodipodi:cx="241.42645"
       sodipodi:cy="634.15906"
       sodipodi:rx="16.162441"
       sodipodi:ry="15.152288"
       d="m 257.58889,634.15906 a 16.162441,15.152288 0 1 1 -32.32488,0 16.162441,15.152288 0 1 1 32.32488,0 z"
       transform="matrix(0.28378498,0,0,0.26594892,142.8591,221.92706)" />
    <path
       sodipodi:type="arc"
       style="opacity:0.49236678;fill:#000000;fill-opacity:1;fill-rule:nonzero;stroke:none"
       id="path3333-0-5"
       sodipodi:cx="241.42645"
       sodipodi:cy="634.15906"
       sodipodi:rx="16.162441"
       sodipodi:ry="15.152288"
       d="m 257.58889,634.15906 a 16.162441,15.152288 0 1 1 -32.32488,0 16.162441,15.152288 0 1 1 32.32488,0 z"
       transform="matrix(0.28378498,0,0,0.26594892,179.1611,221.92695)" />
  </g>
</svg>
