<?xml version="1.0" encoding="UTF-8" standalone="no"?>
<!-- Created with Inkscape (http://www.inkscape.org/) -->

<svg
   xmlns:dc="http://purl.org/dc/elements/1.1/"
   xmlns:cc="http://creativecommons.org/ns#"
   xmlns:rdf="http://www.w3.org/1999/02/22-rdf-syntax-ns#"
   xmlns:svg="http://www.w3.org/2000/svg"
   xmlns="http://www.w3.org/2000/svg"
   xmlns:sodipodi="http://sodipodi.sourceforge.net/DTD/sodipodi-0.dtd"
   xmlns:inkscape="http://www.inkscape.org/namespaces/inkscape"
   width="210mm"
   height="297mm"
   id="svg7381"
   version="1.1"
   inkscape:version="0.48.4 r9939"
   sodipodi:docname="Nuevo documento 32">
  <defs
     id="defs7383" />
  <sodipodi:namedview
     id="base"
     pagecolor="#ffffff"
     bordercolor="#666666"
     borderopacity="1.0"
     inkscape:pageopacity="0.0"
     inkscape:pageshadow="2"
     inkscape:zoom="0.96"
     inkscape:cx="303.20691"
     inkscape:cy="519.93717"
     inkscape:document-units="px"
     inkscape:current-layer="layer1"
     showgrid="false"
     inkscape:window-width="1855"
     inkscape:window-height="1056"
     inkscape:window-x="65"
     inkscape:window-y="24"
     inkscape:window-maximized="1" />
  <metadata
     id="metadata7386">
    <rdf:RDF>
      <cc:Work
         rdf:about="">
        <dc:format>image/svg+xml</dc:format>
        <dc:type
           rdf:resource="http://purl.org/dc/dcmitype/StillImage" />
        <dc:title></dc:title>
      </cc:Work>
    </rdf:RDF>
  </metadata>
  <g
     inkscape:label="Capa 1"
     inkscape:groupmode="layer"
     id="layer1">
    <path
       style="fill:#ff5555;fill-opacity:1;fill-rule:nonzero;stroke:none"
       d="m 476.27524,314.39815 c -10.0743,-4.47181 -17.4505,-12.96488 -41.6989,-16.54302 -24.2483,-3.57814 -43.1904,22.29542 -46.11206,3.58537 -3.34547,-21.42413 22.47986,-31.28131 46.72816,-27.70315 24.2483,3.5782 55.49491,47.058 41.0828,40.6608 z"
       id="path7389"
       inkscape:connector-curvature="0"
       sodipodi:nodetypes="sssss"
       inkscape:transform-center-x="5.745071"
       inkscape:transform-center-y="-13.122913" />
    <g
       id="g7942"
       transform="matrix(0.30883656,-0.11924958,0.10021678,0.38751143,308.23035,228.09351)"
       inkscape:transform-center-x="46.337218"
       inkscape:transform-center-y="-13.767364">
      <path
         sodipodi:nodetypes="ccc"
         inkscape:connector-curvature="0"
         id="path7900"
         d="m 178.125,242.98718 c 4.5604,-33.80034 26.85026,-36.31416 54.16667,-44.79166 -11.78647,21.04726 -23.17802,49.19774 -54.16667,44.79166 z"
         style="fill:#aade87;stroke:none" />
      <path
         inkscape:transform-center-x="162.2597"
         sodipodi:nodetypes="ccc"
         inkscape:connector-curvature="0"
         id="path7900-7"
         d="m 177.69674,242.73481 c 34.41154,-5.95689 42.01971,0.99462 57.71554,32.43323 -23.84293,-7.54824 -53.67574,8.08391 -57.71554,-32.43323 z"
         style="fill:#aade87;stroke:none" />
      <path
         inkscape:transform-center-x="137.8819"
         sodipodi:nodetypes="ccc"
         inkscape:connector-curvature="0"
         id="path7900-7-3"
         d="m 189.97482,233.24744 c 29.24157,-2.65873 33.796,2.96229 47.1337,16.99426 -20.26079,-3.369 -43.70084,1.08972 -47.1337,-16.99426 z"
         style="fill:#aade87;stroke:none" />
      <path
         inkscape:connector-curvature="0"
         id="path7940"
         d="m 192.70833,232.57052 c -12.1738,-10.71149 -26.43262,-6.03901 -38.54166,-7.29167 -3.31313,8.86838 -2.05579,13.01996 -3.125,19.79167 11.13448,-12.11015 25.91021,-10.24908 41.66666,-12.5 z"
         style="fill:#aade87;stroke:none" />
    </g>
    <path
       sodipodi:type="arc"
       style="opacity:0.5;fill:#1a1a1a;fill-opacity:1;fill-rule:nonzero;stroke:none"
       id="path7948"
       sodipodi:cx="193.75"
       sodipodi:cy="462.77884"
       sodipodi:rx="20.833334"
       sodipodi:ry="19.791666"
       d="m 214.58333,462.77884 a 20.833334,19.791666 0 1 1 -41.66666,0 20.833334,19.791666 0 1 1 41.66666,0 z"
       transform="matrix(0.08662409,-0.05397052,0.07815147,0.19123519,361.62868,215.9877)"
       inkscape:transform-center-x="25.215823"
       inkscape:transform-center-y="-13.121248" />
    <path
       sodipodi:type="arc"
       style="opacity:0.5;fill:#1a1a1a;fill-opacity:1;fill-rule:nonzero;stroke:none"
       id="path7948-6"
       sodipodi:cx="193.75"
       sodipodi:cy="462.77884"
       sodipodi:rx="20.833334"
       sodipodi:ry="19.791666"
       d="m 214.58333,462.77884 a 20.833334,19.791666 0 1 1 -41.66666,0 20.833334,19.791666 0 1 1 41.66666,0 z"
       transform="matrix(0.08662409,-0.05397052,0.07815147,0.19123519,375.05183,211.89821)"
       inkscape:transform-center-x="11.792673"
       inkscape:transform-center-y="-17.210738" />
  </g>
</svg>
