<?xml version="1.0" encoding="UTF-8" standalone="no"?>
<!-- Created with Inkscape (http://www.inkscape.org/) -->

<svg
   xmlns:dc="http://purl.org/dc/elements/1.1/"
   xmlns:cc="http://creativecommons.org/ns#"
   xmlns:rdf="http://www.w3.org/1999/02/22-rdf-syntax-ns#"
   xmlns:svg="http://www.w3.org/2000/svg"
   xmlns="http://www.w3.org/2000/svg"
   xmlns:sodipodi="http://sodipodi.sourceforge.net/DTD/sodipodi-0.dtd"
   xmlns:inkscape="http://www.inkscape.org/namespaces/inkscape"
   width="210mm"
   height="297mm"
   id="svg2"
   version="1.1"
   inkscape:version="0.48.4 r9939"
   sodipodi:docname="tomato.svg">
  <defs
     id="defs4" />
  <sodipodi:namedview
     id="base"
     pagecolor="#ffffff"
     bordercolor="#666666"
     borderopacity="1.0"
     inkscape:pageopacity="0.0"
     inkscape:pageshadow="2"
     inkscape:zoom="3.7688511"
     inkscape:cx="154.54428"
     inkscape:cy="759.20446"
     inkscape:document-units="px"
     inkscape:current-layer="layer1"
     showgrid="false"
     inkscape:window-width="1855"
     inkscape:window-height="1056"
     inkscape:window-x="65"
     inkscape:window-y="24"
     inkscape:window-maximized="1" />
  <metadata
     id="metadata7">
    <rdf:RDF>
      <cc:Work
         rdf:about="">
        <dc:format>image/svg+xml</dc:format>
        <dc:type
           rdf:resource="http://purl.org/dc/dcmitype/StillImage" />
        <dc:title />
      </cc:Work>
    </rdf:RDF>
  </metadata>
  <g
     inkscape:label="Capa 1"
     inkscape:groupmode="layer"
     id="layer1">
    <path
       style="fill:#ffaaaa;fill-opacity:1;fill-rule:nonzero;stroke:none"
       d="m 262.0517,293.91184 c 0,18.11689 -17.89448,32.80351 -39.9681,32.80351 -22.0738,0 -39.96811,-14.68662 -39.96811,-32.80351 0,-18.11686 25.01185,-35.65599 42.15815,-22.53458 16.05104,-11.40992 37.77806,4.41772 37.77806,22.53458 z"
       id="path2985"
       inkscape:connector-curvature="0"
       sodipodi:nodetypes="ssscs" />
    <path
       sodipodi:type="arc"
       style="opacity:0.57633589;fill:#000000;fill-opacity:1;fill-rule:nonzero;stroke:#000000;stroke-opacity:1"
       id="path2988"
       sodipodi:cx="383"
       sodipodi:cy="416.61218"
       sodipodi:rx="6"
       sodipodi:ry="5.75"
       d="m 389,416.61218 a 6,5.75 0 1 1 -12,0 6,5.75 0 1 1 12,0 z"
       transform="matrix(0.79711786,0,0,0.91630633,-111.88813,-76.067364)" />
    <g
       id="g3801"
       transform="matrix(1.0950164,0,0,1.1409916,-178.14502,-174.02272)">
      <path
         inkscape:connector-curvature="0"
         id="path3777"
         d="m 368.22655,390.44267 c -42.31058,21.8407 -26.574,-16.89193 0,0 z"
         style="fill:#c6e9af;stroke:none" />
      <path
         inkscape:connector-curvature="0"
         id="path3777-4"
         d="m 365.41979,390.87723 c 42.31058,21.8407 26.574,-16.89193 0,0 z"
         style="fill:#c6e9af;stroke:none" />
      <path
         sodipodi:nodetypes="cccc"
         inkscape:connector-curvature="0"
         id="path3799"
         d="m 366.48546,390.87345 c -3.6735,-6.06651 -2.47534,-11.27157 4.47674,-11.14309 1.64624,0.27374 2.21425,2.88993 3.16962,3.68755 -5.56458,2.10652 -6.34728,3.76862 -7.25708,8.32609"
         style="fill:#c6e9af;stroke:none" />
    </g>
    <path
       sodipodi:type="arc"
       style="opacity:0.57633589;fill:#000000;fill-opacity:1;fill-rule:nonzero;stroke:#000000;stroke-opacity:1"
       id="path2988-4"
       sodipodi:cx="383"
       sodipodi:cy="416.61218"
       sodipodi:rx="6"
       sodipodi:ry="5.75"
       d="m 389,416.61218 a 6,5.75 0 1 1 -12,0 6,5.75 0 1 1 12,0 z"
       transform="matrix(0.79711786,0,0,0.91630633,-53.227971,-76.067364)" />
  </g>
</svg>
